<svg class="rich-terminal" viewBox="0 0 1287 879.5999999999999" xmlns="http://www.w3.org/2000/svg">
    <!-- Generated with Rich https://www.textualize.io -->
    <style>

    @font-face {
        font-family: "Fira Code";
        src: local("FiraCode-Regular"),
                url("https://cdnjs.cloudflare.com/ajax/libs/firacode/6.2.0/woff2/FiraCode-Regular.woff2") format("woff2"),
                url("https://cdnjs.cloudflare.com/ajax/libs/firacode/6.2.0/woff/FiraCode-Regular.woff") format("woff");
        font-style: normal;
        font-weight: 400;
    }
    @font-face {
        font-family: "Fira Code";
        src: local("FiraCode-Bold"),
                url("https://cdnjs.cloudflare.com/ajax/libs/firacode/6.2.0/woff2/FiraCode-Bold.woff2") format("woff2"),
                url("https://cdnjs.cloudflare.com/ajax/libs/firacode/6.2.0/woff/FiraCode-Bold.woff") format("woff");
        font-style: bold;
        font-weight: 700;
    }

    .terminal-3970225527-matrix {
        font-family: Fira Code, monospace;
        font-size: 20px;
        line-height: 24.4px;
        font-variant-east-asian: full-width;
    }

    .terminal-3970225527-title {
        font-size: 18px;
        font-weight: bold;
        font-family: arial;
    }

    .terminal-3970225527-r1 { fill: #c5c8c6 }
.terminal-3970225527-r2 { fill: #58d1eb;font-weight: bold }
.terminal-3970225527-r3 { fill: #999999 }
.terminal-3970225527-r4 { fill: #fd971f;font-weight: bold }
.terminal-3970225527-r5 { fill: #fd971f }
.terminal-3970225527-r6 { fill: #fea62b }
.terminal-3970225527-r7 { fill: #a0a0a0 }
.terminal-3970225527-r8 { fill: #e0e0e0;font-weight: bold }
.terminal-3970225527-r9 { fill: #ddedf9;font-weight: bold }
.terminal-3970225527-r10 { fill: #e0e0e0 }
.terminal-3970225527-r11 { fill: #272727 }
.terminal-3970225527-r12 { fill: #003054 }
.terminal-3970225527-r13 { fill: #6f6f6f }
.terminal-3970225527-r14 { fill: #ffa62b;font-weight: bold }
.terminal-3970225527-r15 { fill: #495259 }
    </style>

    <defs>
    <clipPath id="terminal-3970225527-clip-terminal">
      <rect x="0" y="0" width="1267.8" height="828.5999999999999" />
    </clipPath>
    <clipPath id="terminal-3970225527-line-0">
    <rect x="0" y="1.5" width="1268.8" height="24.65"/>
            </clipPath>
<clipPath id="terminal-3970225527-line-1">
    <rect x="0" y="25.9" width="1268.8" height="24.65"/>
            </clipPath>
<clipPath id="terminal-3970225527-line-2">
    <rect x="0" y="50.3" width="1268.8" height="24.65"/>
            </clipPath>
<clipPath id="terminal-3970225527-line-3">
    <rect x="0" y="74.7" width="1268.8" height="24.65"/>
            </clipPath>
<clipPath id="terminal-3970225527-line-4">
    <rect x="0" y="99.1" width="1268.8" height="24.65"/>
            </clipPath>
<clipPath id="terminal-3970225527-line-5">
    <rect x="0" y="123.5" width="1268.8" height="24.65"/>
            </clipPath>
<clipPath id="terminal-3970225527-line-6">
    <rect x="0" y="147.9" width="1268.8" height="24.65"/>
            </clipPath>
<clipPath id="terminal-3970225527-line-7">
    <rect x="0" y="172.3" width="1268.8" height="24.65"/>
            </clipPath>
<clipPath id="terminal-3970225527-line-8">
    <rect x="0" y="196.7" width="1268.8" height="24.65"/>
            </clipPath>
<clipPath id="terminal-3970225527-line-9">
    <rect x="0" y="221.1" width="1268.8" height="24.65"/>
            </clipPath>
<clipPath id="terminal-3970225527-line-10">
    <rect x="0" y="245.5" width="1268.8" height="24.65"/>
            </clipPath>
<clipPath id="terminal-3970225527-line-11">
    <rect x="0" y="269.9" width="1268.8" height="24.65"/>
            </clipPath>
<clipPath id="terminal-3970225527-line-12">
    <rect x="0" y="294.3" width="1268.8" height="24.65"/>
            </clipPath>
<clipPath id="terminal-3970225527-line-13">
    <rect x="0" y="318.7" width="1268.8" height="24.65"/>
            </clipPath>
<clipPath id="terminal-3970225527-line-14">
    <rect x="0" y="343.1" width="1268.8" height="24.65"/>
            </clipPath>
<clipPath id="terminal-3970225527-line-15">
    <rect x="0" y="367.5" width="1268.8" height="24.65"/>
            </clipPath>
<clipPath id="terminal-3970225527-line-16">
    <rect x="0" y="391.9" width="1268.8" height="24.65"/>
            </clipPath>
<clipPath id="terminal-3970225527-line-17">
    <rect x="0" y="416.3" width="1268.8" height="24.65"/>
            </clipPath>
<clipPath id="terminal-3970225527-line-18">
    <rect x="0" y="440.7" width="1268.8" height="24.65"/>
            </clipPath>
<clipPath id="terminal-3970225527-line-19">
    <rect x="0" y="465.1" width="1268.8" height="24.65"/>
            </clipPath>
<clipPath id="terminal-3970225527-line-20">
    <rect x="0" y="489.5" width="1268.8" height="24.65"/>
            </clipPath>
<clipPath id="terminal-3970225527-line-21">
    <rect x="0" y="513.9" width="1268.8" height="24.65"/>
            </clipPath>
<clipPath id="terminal-3970225527-line-22">
    <rect x="0" y="538.3" width="1268.8" height="24.65"/>
            </clipPath>
<clipPath id="terminal-3970225527-line-23">
    <rect x="0" y="562.7" width="1268.8" height="24.65"/>
            </clipPath>
<clipPath id="terminal-3970225527-line-24">
    <rect x="0" y="587.1" width="1268.8" height="24.65"/>
            </clipPath>
<clipPath id="terminal-3970225527-line-25">
    <rect x="0" y="611.5" width="1268.8" height="24.65"/>
            </clipPath>
<clipPath id="terminal-3970225527-line-26">
    <rect x="0" y="635.9" width="1268.8" height="24.65"/>
            </clipPath>
<clipPath id="terminal-3970225527-line-27">
    <rect x="0" y="660.3" width="1268.8" height="24.65"/>
            </clipPath>
<clipPath id="terminal-3970225527-line-28">
    <rect x="0" y="684.7" width="1268.8" height="24.65"/>
            </clipPath>
<clipPath id="terminal-3970225527-line-29">
    <rect x="0" y="709.1" width="1268.8" height="24.65"/>
            </clipPath>
<clipPath id="terminal-3970225527-line-30">
    <rect x="0" y="733.5" width="1268.8" height="24.65"/>
            </clipPath>
<clipPath id="terminal-3970225527-line-31">
    <rect x="0" y="757.9" width="1268.8" height="24.65"/>
            </clipPath>
<clipPath id="terminal-3970225527-line-32">
    <rect x="0" y="782.3" width="1268.8" height="24.65"/>
            </clipPath>
    </defs>

    <rect fill="#292929" stroke="rgba(255,255,255,0.35)" stroke-width="1" x="1" y="1" width="1285" height="877.6" rx="8"/><text class="terminal-3970225527-title" fill="#c5c8c6" text-anchor="middle" x="642" y="27">warfront2&#160;—&#160;대시보드</text>
            <g transform="translate(26,22)">
            <circle cx="0" cy="0" r="7" fill="#ff5f57"/>
            <circle cx="22" cy="0" r="7" fill="#febc2e"/>
            <circle cx="44" cy="0" r="7" fill="#28c840"/>
            </g>
        
    <g transform="translate(9, 41)" clip-path="url(#terminal-3970225527-clip-terminal)">
    <rect fill="#121212" x="0" y="1.5" width="1268.8" height="24.65" shape-rendering="crispEdges"/><rect fill="#121212" x="0" y="25.9" width="36.6" height="24.65" shape-rendering="crispEdges"/><rect fill="#121212" x="36.6" y="25.9" width="146.4" height="24.65" shape-rendering="crispEdges"/><rect fill="#121212" x="183" y="25.9" width="280.6" height="24.65" shape-rendering="crispEdges"/><rect fill="#121212" x="463.6" y="25.9" width="768.6" height="24.65" shape-rendering="crispEdges"/><rect fill="#121212" x="1232.2" y="25.9" width="36.6" height="24.65" shape-rendering="crispEdges"/><rect fill="#121212" x="0" y="50.3" width="36.6" height="24.65" shape-rendering="crispEdges"/><rect fill="#121212" x="36.6" y="50.3" width="1195.6" height="24.65" shape-rendering="crispEdges"/><rect fill="#121212" x="1232.2" y="50.3" width="36.6" height="24.65" shape-rendering="crispEdges"/><rect fill="#121212" x="0" y="74.7" width="36.6" height="24.65" shape-rendering="crispEdges"/><rect fill="#121212" x="36.6" y="74.7" width="207.4" height="24.65" shape-rendering="crispEdges"/><rect fill="#121212" x="244" y="74.7" width="439.2" height="24.65" shape-rendering="crispEdges"/><rect fill="#121212" x="683.2" y="74.7" width="158.6" height="24.65" shape-rendering="crispEdges"/><rect fill="#121212" x="841.8" y="74.7" width="390.4" height="24.65" shape-rendering="crispEdges"/><rect fill="#121212" x="1232.2" y="74.7" width="36.6" height="24.65" shape-rendering="crispEdges"/><rect fill="#121212" x="0" y="99.1" width="36.6" height="24.65" shape-rendering="crispEdges"/><rect fill="#121212" x="36.6" y="99.1" width="1195.6" height="24.65" shape-rendering="crispEdges"/><rect fill="#121212" x="1232.2" y="99.1" width="36.6" height="24.65" shape-rendering="crispEdges"/><rect fill="#121212" x="0" y="123.5" width="36.6" height="24.65" shape-rendering="crispEdges"/><rect fill="#121212" x="36.6" y="123.5" width="536.8" height="24.65" shape-rendering="crispEdges"/><rect fill="#121212" x="573.4" y="123.5" width="36.6" height="24.65" shape-rendering="crispEdges"/><rect fill="#121212" x="610" y="123.5" width="48.8" height="24.65" shape-rendering="crispEdges"/><rect fill="#121212" x="658.8" y="123.5" width="36.6" height="24.65" shape-rendering="crispEdges"/><rect fill="#121212" x="695.4" y="123.5" width="536.8" height="24.65" shape-rendering="crispEdges"/><rect fill="#121212" x="1232.2" y="123.5" width="36.6" height="24.65" shape-rendering="crispEdges"/><rect fill="#121212" x="0" y="147.9" width="36.6" height="24.65" shape-rendering="crispEdges"/><rect fill="#121212" x="36.6" y="147.9" width="536.8" height="24.65" shape-rendering="crispEdges"/><rect fill="#121212" x="573.4" y="147.9" width="36.6" height="24.65" shape-rendering="crispEdges"/><rect fill="#121212" x="610" y="147.9" width="48.8" height="24.65" shape-rendering="crispEdges"/><rect fill="#121212" x="658.8" y="147.9" width="36.6" height="24.65" shape-rendering="crispEdges"/><rect fill="#121212" x="695.4" y="147.9" width="536.8" height="24.65" shape-rendering="crispEdges"/><rect fill="#121212" x="1232.2" y="147.9" width="36.6" height="24.65" shape-rendering="crispEdges"/><rect fill="#121212" x="0" y="172.3" width="36.6" height="24.65" shape-rendering="crispEdges"/><rect fill="#121212" x="36.6" y="172.3" width="536.8" height="24.65" shape-rendering="crispEdges"/><rect fill="#121212" x="573.4" y="172.3" width="36.6" height="24.65" shape-rendering="crispEdges"/><rect fill="#121212" x="610" y="172.3" width="48.8" height="24.65" shape-rendering="crispEdges"/><rect fill="#121212" x="658.8" y="172.3" width="36.6" height="24.65" shape-rendering="crispEdges"/><rect fill="#121212" x="695.4" y="172.3" width="536.8" height="24.65" shape-rendering="crispEdges"/><rect fill="#121212" x="1232.2" y="172.3" width="36.6" height="24.65" shape-rendering="crispEdges"/><rect fill="#121212" x="0" y="196.7" width="36.6" height="24.65" shape-rendering="crispEdges"/><rect fill="#121212" x="36.6" y="196.7" width="536.8" height="24.65" shape-rendering="crispEdges"/><rect fill="#121212" x="573.4" y="196.7" width="36.6" height="24.65" shape-rendering="crispEdges"/><rect fill="#121212" x="610" y="196.7" width="48.8" height="24.65" shape-rendering="crispEdges"/><rect fill="#121212" x="658.8" y="196.7" width="36.6" height="24.65" shape-rendering="crispEdges"/><rect fill="#121212" x="695.4" y="196.7" width="536.8" height="24.65" shape-rendering="crispEdges"/><rect fill="#121212" x="1232.2" y="196.7" width="36.6" height="24.65" shape-rendering="crispEdges"/><rect fill="#121212" x="0" y="221.1" width="36.6" height="24.65" shape-rendering="crispEdges"/><rect fill="#121212" x="36.6" y="221.1" width="536.8" height="24.65" shape-rendering="crispEdges"/><rect fill="#121212" x="573.4" y="221.1" width="24.4" height="24.65" shape-rendering="crispEdges"/><rect fill="#121212" x="597.8" y="221.1" width="12.2" height="24.65" shape-rendering="crispEdges"/><rect fill="#121212" x="610" y="221.1" width="48.8" height="24.65" shape-rendering="crispEdges"/><rect fill="#121212" x="658.8" y="221.1" width="24.4" height="24.65" shape-rendering="crispEdges"/><rect fill="#121212" x="683.2" y="221.1" width="12.2" height="24.65" shape-rendering="crispEdges"/><rect fill="#121212" x="695.4" y="221.1" width="536.8" height="24.65" shape-rendering="crispEdges"/><rect fill="#121212" x="1232.2" y="221.1" width="36.6" height="24.65" shape-rendering="crispEdges"/><rect fill="#121212" x="0" y="245.5" width="36.6" height="24.65" shape-rendering="crispEdges"/><rect fill="#121212" x="36.6" y="245.5" width="1195.6" height="24.65" shape-rendering="crispEdges"/><rect fill="#121212" x="1232.2" y="245.5" width="36.6" height="24.65" shape-rendering="crispEdges"/><rect fill="#121212" x="0" y="269.9" width="36.6" height="24.65" shape-rendering="crispEdges"/><rect fill="#2d3740" x="36.6" y="269.9" width="451.4" height="24.65" shape-rendering="crispEdges"/><rect fill="#2d3740" x="488" y="269.9" width="744.2" height="24.65" shape-rendering="crispEdges"/><rect fill="#121212" x="1232.2" y="269.9" width="36.6" height="24.65" shape-rendering="crispEdges"/><rect fill="#121212" x="0" y="294.3" width="36.6" height="24.65" shape-rendering="crispEdges"/><rect fill="#0178d4" x="36.6" y="294.3" width="451.4" height="24.65" shape-rendering="crispEdges"/><rect fill="#0178d4" x="488" y="294.3" width="744.2" height="24.65" shape-rendering="crispEdges"/><rect fill="#121212" x="1232.2" y="294.3" width="36.6" height="24.65" shape-rendering="crispEdges"/><rect fill="#121212" x="0" y="318.7" width="36.6" height="24.65" shape-rendering="crispEdges"/><rect fill="#272727" x="36.6" y="318.7" width="451.4" height="24.65" shape-rendering="crispEdges"/><rect fill="#272727" x="488" y="318.7" width="744.2" height="24.65" shape-rendering="crispEdges"/><rect fill="#121212" x="1232.2" y="318.7" width="36.6" height="24.65" shape-rendering="crispEdges"/><rect fill="#121212" x="0" y="343.1" width="36.6" height="24.65" shape-rendering="crispEdges"/><rect fill="#272727" x="36.6" y="343.1" width="451.4" height="24.65" shape-rendering="crispEdges"/><rect fill="#272727" x="488" y="343.1" width="744.2" height="24.65" shape-rendering="crispEdges"/><rect fill="#121212" x="1232.2" y="343.1" width="36.6" height="24.65" shape-rendering="crispEdges"/><rect fill="#121212" x="0" y="367.5" width="36.6" height="24.65" shape-rendering="crispEdges"/><rect fill="#272727" x="36.6" y="367.5" width="451.4" height="24.65" shape-rendering="crispEdges"/><rect fill="#272727" x="488" y="367.5" width="744.2" height="24.65" shape-rendering="crispEdges"/><rect fill="#121212" x="1232.2" y="367.5" width="36.6" height="24.65" shape-rendering="crispEdges"/><rect fill="#121212" x="0" y="391.9" width="36.6" height="24.65" shape-rendering="crispEdges"/><rect fill="#272727" x="36.6" y="391.9" width="451.4" height="24.65" shape-rendering="crispEdges"/><rect fill="#272727" x="488" y="391.9" width="744.2" height="24.65" shape-rendering="crispEdges"/><rect fill="#121212" x="1232.2" y="391.9" width="36.6" height="24.65" shape-rendering="crispEdges"/><rect fill="#121212" x="0" y="416.3" width="36.6" height="24.65" shape-rendering="crispEdges"/><rect fill="#272727" x="36.6" y="416.3" width="451.4" height="24.65" shape-rendering="crispEdges"/><rect fill="#272727" x="488" y="416.3" width="744.2" height="24.65" shape-rendering="crispEdges"/><rect fill="#121212" x="1232.2" y="416.3" width="36.6" height="24.65" shape-rendering="crispEdges"/><rect fill="#121212" x="0" y="440.7" width="36.6" height="24.65" shape-rendering="crispEdges"/><rect fill="#272727" x="36.6" y="440.7" width="451.4" height="24.65" shape-rendering="crispEdges"/><rect fill="#272727" x="488" y="440.7" width="744.2" height="24.65" shape-rendering="crispEdges"/><rect fill="#121212" x="1232.2" y="440.7" width="36.6" height="24.65" shape-rendering="crispEdges"/><rect fill="#121212" x="0" y="465.1" width="36.6" height="24.65" shape-rendering="crispEdges"/><rect fill="#272727" x="36.6" y="465.1" width="451.4" height="24.65" shape-rendering="crispEdges"/><rect fill="#272727" x="488" y="465.1" width="744.2" height="24.65" shape-rendering="crispEdges"/><rect fill="#121212" x="1232.2" y="465.1" width="36.6" height="24.65" shape-rendering="crispEdges"/><rect fill="#121212" x="0" y="489.5" width="36.6" height="24.65" shape-rendering="crispEdges"/><rect fill="#272727" x="36.6" y="489.5" width="451.4" height="24.65" shape-rendering="crispEdges"/><rect fill="#272727" x="488" y="489.5" width="744.2" height="24.65" shape-rendering="crispEdges"/><rect fill="#121212" x="1232.2" y="489.5" width="36.6" height="24.65" shape-rendering="crispEdges"/><rect fill="#121212" x="0" y="513.9" width="36.6" height="24.65" shape-rendering="crispEdges"/><rect fill="#272727" x="36.6" y="513.9" width="451.4" height="24.65" shape-rendering="crispEdges"/><rect fill="#272727" x="488" y="513.9" width="744.2" height="24.65" shape-rendering="crispEdges"/><rect fill="#121212" x="1232.2" y="513.9" width="36.6" height="24.65" shape-rendering="crispEdges"/><rect fill="#121212" x="0" y="538.3" width="36.6" height="24.65" shape-rendering="crispEdges"/><rect fill="#272727" x="36.6" y="538.3" width="451.4" height="24.65" shape-rendering="crispEdges"/><rect fill="#272727" x="488" y="538.3" width="744.2" height="24.65" shape-rendering="crispEdges"/><rect fill="#121212" x="1232.2" y="538.3" width="36.6" height="24.65" shape-rendering="crispEdges"/><rect fill="#121212" x="0" y="562.7" width="36.6" height="24.65" shape-rendering="crispEdges"/><rect fill="#272727" x="36.6" y="562.7" width="451.4" height="24.65" shape-rendering="crispEdges"/><rect fill="#272727" x="488" y="562.7" width="744.2" height="24.65" shape-rendering="crispEdges"/><rect fill="#121212" x="1232.2" y="562.7" width="36.6" height="24.65" shape-rendering="crispEdges"/><rect fill="#121212" x="0" y="587.1" width="36.6" height="24.65" shape-rendering="crispEdges"/><rect fill="#272727" x="36.6" y="587.1" width="451.4" height="24.65" shape-rendering="crispEdges"/><rect fill="#272727" x="488" y="587.1" width="744.2" height="24.65" shape-rendering="crispEdges"/><rect fill="#121212" x="1232.2" y="587.1" width="36.6" height="24.65" shape-rendering="crispEdges"/><rect fill="#121212" x="0" y="611.5" width="36.6" height="24.65" shape-rendering="crispEdges"/><rect fill="#272727" x="36.6" y="611.5" width="451.4" height="24.65" shape-rendering="crispEdges"/><rect fill="#272727" x="488" y="611.5" width="744.2" height="24.65" shape-rendering="crispEdges"/><rect fill="#121212" x="1232.2" y="611.5" width="36.6" height="24.65" shape-rendering="crispEdges"/><rect fill="#121212" x="0" y="635.9" width="36.6" height="24.65" shape-rendering="crispEdges"/><rect fill="#272727" x="36.6" y="635.9" width="451.4" height="24.65" shape-rendering="crispEdges"/><rect fill="#272727" x="488" y="635.9" width="744.2" height="24.65" shape-rendering="crispEdges"/><rect fill="#121212" x="1232.2" y="635.9" width="36.6" height="24.65" shape-rendering="crispEdges"/><rect fill="#121212" x="0" y="660.3" width="36.6" height="24.65" shape-rendering="crispEdges"/><rect fill="#003054" x="36.6" y="660.3" width="12.2" height="24.65" shape-rendering="crispEdges"/><rect fill="#003054" x="48.8" y="660.3" width="12.2" height="24.65" shape-rendering="crispEdges"/><rect fill="#003054" x="61" y="660.3" width="12.2" height="24.65" shape-rendering="crispEdges"/><rect fill="#003054" x="73.2" y="660.3" width="12.2" height="24.65" shape-rendering="crispEdges"/><rect fill="#003054" x="85.4" y="660.3" width="12.2" height="24.65" shape-rendering="crispEdges"/><rect fill="#003054" x="97.6" y="660.3" width="12.2" height="24.65" shape-rendering="crispEdges"/><rect fill="#003054" x="109.8" y="660.3" width="12.2" height="24.65" shape-rendering="crispEdges"/><rect fill="#003054" x="122" y="660.3" width="12.2" height="24.65" shape-rendering="crispEdges"/><rect fill="#003054" x="134.2" y="660.3" width="12.2" height="24.65" shape-rendering="crispEdges"/><rect fill="#003054" x="146.4" y="660.3" width="12.2" height="24.65" shape-rendering="crispEdges"/><rect fill="#003054" x="158.6" y="660.3" width="12.2" height="24.65" shape-rendering="crispEdges"/><rect fill="#003054" x="170.8" y="660.3" width="12.2" height="24.65" shape-rendering="crispEdges"/><rect fill="#003054" x="183" y="660.3" width="12.2" height="24.65" shape-rendering="crispEdges"/><rect fill="#003054" x="195.2" y="660.3" width="12.2" height="24.65" shape-rendering="crispEdges"/><rect fill="#003054" x="207.4" y="660.3" width="12.2" height="24.65" shape-rendering="crispEdges"/><rect fill="#003054" x="219.6" y="660.3" width="12.2" height="24.65" shape-rendering="crispEdges"/><rect fill="#003054" x="231.8" y="660.3" width="12.2" height="24.65" shape-rendering="crispEdges"/><rect fill="#003054" x="244" y="660.3" width="12.2" height="24.65" shape-rendering="crispEdges"/><rect fill="#003054" x="256.2" y="660.3" width="12.2" height="24.65" shape-rendering="crispEdges"/><rect fill="#003054" x="268.4" y="660.3" width="12.2" height="24.65" shape-rendering="crispEdges"/><rect fill="#003054" x="280.6" y="660.3" width="12.2" height="24.65" shape-rendering="crispEdges"/><rect fill="#003054" x="292.8" y="660.3" width="12.2" height="24.65" shape-rendering="crispEdges"/><rect fill="#003054" x="305" y="660.3" width="12.2" height="24.65" shape-rendering="crispEdges"/><rect fill="#003054" x="317.2" y="660.3" width="12.2" height="24.65" shape-rendering="crispEdges"/><rect fill="#003054" x="329.4" y="660.3" width="12.2" height="24.65" shape-rendering="crispEdges"/><rect fill="#003054" x="341.6" y="660.3" width="12.2" height="24.65" shape-rendering="crispEdges"/><rect fill="#003054" x="353.8" y="660.3" width="12.2" height="24.65" shape-rendering="crispEdges"/><rect fill="#003054" x="366" y="660.3" width="12.2" height="24.65" shape-rendering="crispEdges"/><rect fill="#003054" x="378.2" y="660.3" width="12.2" height="24.65" shape-rendering="crispEdges"/><rect fill="#003054" x="390.4" y="660.3" width="12.2" height="24.65" shape-rendering="crispEdges"/><rect fill="#003054" x="402.6" y="660.3" width="12.2" height="24.65" shape-rendering="crispEdges"/><rect fill="#003054" x="414.8" y="660.3" width="12.2" height="24.65" shape-rendering="crispEdges"/><rect fill="#003054" x="427" y="660.3" width="12.2" height="24.65" shape-rendering="crispEdges"/><rect fill="#003054" x="439.2" y="660.3" width="12.2" height="24.65" shape-rendering="crispEdges"/><rect fill="#003054" x="451.4" y="660.3" width="12.2" height="24.65" shape-rendering="crispEdges"/><rect fill="#003054" x="463.6" y="660.3" width="12.2" height="24.65" shape-rendering="crispEdges"/><rect fill="#003054" x="475.8" y="660.3" width="12.2" height="24.65" shape-rendering="crispEdges"/><rect fill="#003054" x="488" y="660.3" width="12.2" height="24.65" shape-rendering="crispEdges"/><rect fill="#003054" x="500.2" y="660.3" width="12.2" height="24.65" shape-rendering="crispEdges"/><rect fill="#003054" x="512.4" y="660.3" width="12.2" height="24.65" shape-rendering="crispEdges"/><rect fill="#003054" x="524.6" y="660.3" width="12.2" height="24.65" shape-rendering="crispEdges"/><rect fill="#003054" x="536.8" y="660.3" width="12.2" height="24.65" shape-rendering="crispEdges"/><rect fill="#003054" x="549" y="660.3" width="12.2" height="24.65" shape-rendering="crispEdges"/><rect fill="#003054" x="561.2" y="660.3" width="12.2" height="24.65" shape-rendering="crispEdges"/><rect fill="#003054" x="573.4" y="660.3" width="12.2" height="24.65" shape-rendering="crispEdges"/><rect fill="#003054" x="585.6" y="660.3" width="12.2" height="24.65" shape-rendering="crispEdges"/><rect fill="#003054" x="597.8" y="660.3" width="12.2" height="24.65" shape-rendering="crispEdges"/><rect fill="#003054" x="610" y="660.3" width="12.2" height="24.65" shape-rendering="crispEdges"/><rect fill="#003054" x="622.2" y="660.3" width="12.2" height="24.65" shape-rendering="crispEdges"/><rect fill="#003054" x="634.4" y="660.3" width="12.2" height="24.65" shape-rendering="crispEdges"/><rect fill="#003054" x="646.6" y="660.3" width="12.2" height="24.65" shape-rendering="crispEdges"/><rect fill="#003054" x="658.8" y="660.3" width="12.2" height="24.65" shape-rendering="crispEdges"/><rect fill="#003054" x="671" y="660.3" width="12.2" height="24.65" shape-rendering="crispEdges"/><rect fill="#003054" x="683.2" y="660.3" width="12.2" height="24.65" shape-rendering="crispEdges"/><rect fill="#003054" x="695.4" y="660.3" width="12.2" height="24.65" shape-rendering="crispEdges"/><rect fill="#003054" x="707.6" y="660.3" width="12.2" height="24.65" shape-rendering="crispEdges"/><rect fill="#003054" x="719.8" y="660.3" width="12.2" height="24.65" shape-rendering="crispEdges"/><rect fill="#003054" x="732" y="660.3" width="12.2" height="24.65" shape-rendering="crispEdges"/><rect fill="#003054" x="744.2" y="660.3" width="12.2" height="24.65" shape-rendering="crispEdges"/><rect fill="#003054" x="756.4" y="660.3" width="12.2" height="24.65" shape-rendering="crispEdges"/><rect fill="#003054" x="768.6" y="660.3" width="12.2" height="24.65" shape-rendering="crispEdges"/><rect fill="#003054" x="780.8" y="660.3" width="12.2" height="24.65" shape-rendering="crispEdges"/><rect fill="#003054" x="793" y="660.3" width="12.2" height="24.65" shape-rendering="crispEdges"/><rect fill="#003054" x="805.2" y="660.3" width="12.2" height="24.65" shape-rendering="crispEdges"/><rect fill="#003054" x="817.4" y="660.3" width="12.2" height="24.65" shape-rendering="crispEdges"/><rect fill="#003054" x="829.6" y="660.3" width="12.2" height="24.65" shape-rendering="crispEdges"/><rect fill="#003054" x="841.8" y="660.3" width="12.2" height="24.65" shape-rendering="crispEdges"/><rect fill="#000000" x="854" y="660.3" width="12.2" height="24.65" shape-rendering="crispEdges"/><rect fill="#000000" x="866.2" y="660.3" width="12.2" height="24.65" shape-rendering="crispEdges"/><rect fill="#000000" x="878.4" y="660.3" width="12.2" height="24.65" shape-rendering="crispEdges"/><rect fill="#000000" x="890.6" y="660.3" width="12.2" height="24.65" shape-rendering="crispEdges"/><rect fill="#000000" x="902.8" y="660.3" width="12.2" height="24.65" shape-rendering="crispEdges"/><rect fill="#000000" x="915" y="660.3" width="12.2" height="24.65" shape-rendering="crispEdges"/><rect fill="#000000" x="927.2" y="660.3" width="12.2" height="24.65" shape-rendering="crispEdges"/><rect fill="#000000" x="939.4" y="660.3" width="12.2" height="24.65" shape-rendering="crispEdges"/><rect fill="#000000" x="951.6" y="660.3" width="12.2" height="24.65" shape-rendering="crispEdges"/><rect fill="#000000" x="963.8" y="660.3" width="12.2" height="24.65" shape-rendering="crispEdges"/><rect fill="#000000" x="976" y="660.3" width="12.2" height="24.65" shape-rendering="crispEdges"/><rect fill="#000000" x="988.2" y="660.3" width="12.2" height="24.65" shape-rendering="crispEdges"/><rect fill="#000000" x="1000.4" y="660.3" width="12.2" height="24.65" shape-rendering="crispEdges"/><rect fill="#000000" x="1012.6" y="660.3" width="12.2" height="24.65" shape-rendering="crispEdges"/><rect fill="#000000" x="1024.8" y="660.3" width="12.2" height="24.65" shape-rendering="crispEdges"/><rect fill="#000000" x="1037" y="660.3" width="12.2" height="24.65" shape-rendering="crispEdges"/><rect fill="#000000" x="1049.2" y="660.3" width="12.2" height="24.65" shape-rendering="crispEdges"/><rect fill="#000000" x="1061.4" y="660.3" width="12.2" height="24.65" shape-rendering="crispEdges"/><rect fill="#000000" x="1073.6" y="660.3" width="12.2" height="24.65" shape-rendering="crispEdges"/><rect fill="#000000" x="1085.8" y="660.3" width="12.2" height="24.65" shape-rendering="crispEdges"/><rect fill="#000000" x="1098" y="660.3" width="12.2" height="24.65" shape-rendering="crispEdges"/><rect fill="#000000" x="1110.2" y="660.3" width="12.2" height="24.65" shape-rendering="crispEdges"/><rect fill="#000000" x="1122.4" y="660.3" width="12.2" height="24.65" shape-rendering="crispEdges"/><rect fill="#000000" x="1134.6" y="660.3" width="12.2" height="24.65" shape-rendering="crispEdges"/><rect fill="#000000" x="1146.8" y="660.3" width="12.2" height="24.65" shape-rendering="crispEdges"/><rect fill="#000000" x="1159" y="660.3" width="12.2" height="24.65" shape-rendering="crispEdges"/><rect fill="#000000" x="1171.2" y="660.3" width="12.2" height="24.65" shape-rendering="crispEdges"/><rect fill="#000000" x="1183.4" y="660.3" width="12.2" height="24.65" shape-rendering="crispEdges"/><rect fill="#000000" x="1195.6" y="660.3" width="12.2" height="24.65" shape-rendering="crispEdges"/><rect fill="#000000" x="1207.8" y="660.3" width="12.2" height="24.65" shape-rendering="crispEdges"/><rect fill="#000000" x="1220" y="660.3" width="12.2" height="24.65" shape-rendering="crispEdges"/><rect fill="#121212" x="1232.2" y="660.3" width="36.6" height="24.65" shape-rendering="crispEdges"/><rect fill="#121212" x="0" y="684.7" width="36.6" height="24.65" shape-rendering="crispEdges"/><rect fill="#121212" x="36.6" y="684.7" width="1195.6" height="24.65" shape-rendering="crispEdges"/><rect fill="#121212" x="1232.2" y="684.7" width="36.6" height="24.65" shape-rendering="crispEdges"/><rect fill="#121212" x="0" y="709.1" width="36.6" height="24.65" shape-rendering="crispEdges"/><rect fill="#121212" x="36.6" y="709.1" width="183" height="24.65" shape-rendering="crispEdges"/><rect fill="#121212" x="219.6" y="709.1" width="817.4" height="24.65" shape-rendering="crispEdges"/><rect fill="#121212" x="1037" y="709.1" width="195.2" height="24.65" shape-rendering="crispEdges"/><rect fill="#121212" x="1232.2" y="709.1" width="36.6" height="24.65" shape-rendering="crispEdges"/><rect fill="#121212" x="0" y="733.5" width="36.6" height="24.65" shape-rendering="crispEdges"/><rect fill="#121212" x="36.6" y="733.5" width="390.4" height="24.65" shape-rendering="crispEdges"/><rect fill="#121212" x="427" y="733.5" width="402.6" height="24.65" shape-rendering="crispEdges"/><rect fill="#121212" x="829.6" y="733.5" width="402.6" height="24.65" shape-rendering="crispEdges"/><rect fill="#121212" x="1232.2" y="733.5" width="36.6" height="24.65" shape-rendering="crispEdges"/><rect fill="#121212" x="0" y="757.9" width="1268.8" height="24.65" shape-rendering="crispEdges"/><rect fill="#121212" x="0" y="782.3" width="1268.8" height="24.65" shape-rendering="crispEdges"/><rect fill="#242f38" x="0" y="806.7" width="36.6" height="24.65" shape-rendering="crispEdges"/><rect fill="#242f38" x="36.6" y="806.7" width="61" height="24.65" shape-rendering="crispEdges"/><rect fill="#242f38" x="97.6" y="806.7" width="36.6" height="24.65" shape-rendering="crispEdges"/><rect fill="#242f38" x="134.2" y="806.7" width="61" height="24.65" shape-rendering="crispEdges"/><rect fill="#242f38" x="195.2" y="806.7" width="36.6" height="24.65" shape-rendering="crispEdges"/><rect fill="#242f38" x="231.8" y="806.7" width="61" height="24.65" shape-rendering="crispEdges"/><rect fill="#242f38" x="292.8" y="806.7" width="36.6" height="24.65" shape-rendering="crispEdges"/><rect fill="#242f38" x="329.4" y="806.7" width="61" height="24.65" shape-rendering="crispEdges"/><rect fill="#242f38" x="390.4" y="806.7" width="36.6" height="24.65" shape-rendering="crispEdges"/><rect fill="#242f38" x="427" y="806.7" width="122" height="24.65" shape-rendering="crispEdges"/><rect fill="#242f38" x="549" y="806.7" width="36.6" height="24.65" shape-rendering="crispEdges"/><rect fill="#242f38" x="585.6" y="806.7" width="109.8" height="24.65" shape-rendering="crispEdges"/><rect fill="#242f38" x="695.4" y="806.7" width="36.6" height="24.65" shape-rendering="crispEdges"/><rect fill="#242f38" x="732" y="806.7" width="61" height="24.65" shape-rendering="crispEdges"/><rect fill="#242f38" x="793" y="806.7" width="329.4" height="24.65" shape-rendering="crispEdges"/><rect fill="#242f38" x="1122.4" y="806.7" width="12.2" height="24.65" shape-rendering="crispEdges"/><rect fill="#242f38" x="1134.6" y="806.7" width="24.4" height="24.65" shape-rendering="crispEdges"/><rect fill="#242f38" x="1159" y="806.7" width="97.6" height="24.65" shape-rendering="crispEdges"/><rect fill="#242f38" x="1256.6" y="806.7" width="12.2" height="24.65" shape-rendering="crispEdges"/>
    <g class="terminal-3970225527-matrix">
    <text class="terminal-3970225527-r1" x="1268.8" y="20" textLength="12.2" clip-path="url(#terminal-3970225527-line-0)">
</text><text class="terminal-3970225527-r2" x="36.6" y="44.4" textLength="146.4" clip-path="url(#terminal-3970225527-line-1)">⚔&#160;WARFRONT&#160;2</text><text class="terminal-3970225527-r3" x="183" y="44.4" textLength="183" clip-path="url(#terminal-3970225527-line-1)">&#160;&#160;&#160;50일&#160;코딩테스트&#160;훈련</text><text class="terminal-3970225527-r1" x="1268.8" y="44.4" textLength="12.2" clip-path="url(#terminal-3970225527-line-1)">
</text><text class="terminal-3970225527-r1" x="1268.8" y="68.8" textLength="12.2" clip-path="url(#terminal-3970225527-line-2)">
</text><text class="terminal-3970225527-r4" x="36.6" y="93.2" textLength="146.4" clip-path="url(#terminal-3970225527-line-3)">⚡&#160;속성&#160;모드&#160;D1/7</text><text class="terminal-3970225527-r5" x="244" y="93.2" textLength="317.2" clip-path="url(#terminal-3970225527-line-3)">&#160;—&#160;오늘:&#160;어법&#160;+&#160;구현&#160;+&#160;해시&#160;(신규&#160;3)</text><text class="terminal-3970225527-r3" x="683.2" y="93.2" textLength="122" clip-path="url(#terminal-3970225527-line-3)">&#160;&#160;&#160;(t로&#160;해제)</text><text class="terminal-3970225527-r1" x="1268.8" y="93.2" textLength="12.2" clip-path="url(#terminal-3970225527-line-3)">
</text><text class="terminal-3970225527-r1" x="1268.8" y="117.6" textLength="12.2" clip-path="url(#terminal-3970225527-line-4)">
</text><text class="terminal-3970225527-r6" x="573.4" y="142" textLength="36.6" clip-path="url(#terminal-3970225527-line-5)">╶╮&#160;</text><text class="terminal-3970225527-r6" x="658.8" y="142" textLength="36.6" clip-path="url(#terminal-3970225527-line-5)">╶╮&#160;</text><text class="terminal-3970225527-r1" x="1268.8" y="142" textLength="12.2" clip-path="url(#terminal-3970225527-line-5)">
</text><text class="terminal-3970225527-r6" x="573.4" y="166.4" textLength="36.6" clip-path="url(#terminal-3970225527-line-6)">&#160;│&#160;</text><text class="terminal-3970225527-r6" x="658.8" y="166.4" textLength="36.6" clip-path="url(#terminal-3970225527-line-6)">&#160;│&#160;</text><text class="terminal-3970225527-r1" x="1268.8" y="166.4" textLength="12.2" clip-path="url(#terminal-3970225527-line-6)">
</text><text class="terminal-3970225527-r6" x="573.4" y="190.8" textLength="36.6" clip-path="url(#terminal-3970225527-line-7)">╶┴╴</text><text class="terminal-3970225527-r6" x="658.8" y="190.8" textLength="36.6" clip-path="url(#terminal-3970225527-line-7)">╶┴╴</text><text class="terminal-3970225527-r1" x="1268.8" y="190.8" textLength="12.2" clip-path="url(#terminal-3970225527-line-7)">
</text><text class="terminal-3970225527-r1" x="1268.8" y="215.2" textLength="12.2" clip-path="url(#terminal-3970225527-line-8)">
</text><text class="terminal-3970225527-r7" x="573.4" y="239.6" textLength="12.2" clip-path="url(#terminal-3970225527-line-9)">일</text><text class="terminal-3970225527-r7" x="658.8" y="239.6" textLength="12.2" clip-path="url(#terminal-3970225527-line-9)">연</text><text class="terminal-3970225527-r1" x="1268.8" y="239.6" textLength="12.2" clip-path="url(#terminal-3970225527-line-9)">
</text><text class="terminal-3970225527-r1" x="1268.8" y="264" textLength="12.2" clip-path="url(#terminal-3970225527-line-10)">
</text><text class="terminal-3970225527-r8" x="36.6" y="288.4" textLength="427" clip-path="url(#terminal-3970225527-line-11)">&#160;카타&#160;&#160;&#160;&#160;&#160;&#160;&#160;&#160;&#160;&#160;&#160;&#160;&#160;&#160;&#160;&#160;&#160;&#160;&#160;&#160;&#160;&#160;&#160;&#160;&#160;&#160;&#160;&#160;&#160;&#160;&#160;&#160;</text><text class="terminal-3970225527-r8" x="488" y="288.4" textLength="719.8" clip-path="url(#terminal-3970225527-line-11)">&#160;설명&#160;&#160;&#160;&#160;&#160;&#160;&#160;&#160;&#160;&#160;&#160;&#160;&#160;&#160;&#160;&#160;&#160;&#160;&#160;&#160;&#160;&#160;&#160;&#160;&#160;&#160;&#160;&#160;&#160;&#160;&#160;&#160;&#160;&#160;&#160;&#160;&#160;&#160;&#160;&#160;&#160;&#160;&#160;&#160;&#160;&#160;&#160;&#160;&#160;&#160;&#160;&#160;&#160;&#160;&#160;&#160;</text><text class="terminal-3970225527-r1" x="1268.8" y="288.4" textLength="12.2" clip-path="url(#terminal-3970225527-line-11)">
</text><text class="terminal-3970225527-r9" x="36.6" y="312.8" textLength="353.8" clip-path="url(#terminal-3970225527-line-12)">&#160;⚡&#160;어법&#160;—&#160;파싱과&#160;dict&#160;집계&#160;&#160;&#160;&#160;&#160;&#160;&#160;&#160;&#160;&#160;</text><text class="terminal-3970225527-r9" x="488" y="312.8" textLength="561.2" clip-path="url(#terminal-3970225527-line-12)">&#160;문자열&#160;split&#160;+&#160;dict.get&#160;집계&#160;—&#160;모든&#160;코테&#160;문제의&#160;첫&#160;근육.&#160;&#160;&#160;&#160;</text><text class="terminal-3970225527-r1" x="1268.8" y="312.8" textLength="12.2" clip-path="url(#terminal-3970225527-line-12)">
</text><text class="terminal-3970225527-r10" x="36.6" y="337.2" textLength="305" clip-path="url(#terminal-3970225527-line-13)">&#160;⚡&#160;구현&#160;—&#160;로봇&#160;이동&#160;시뮬레이션&#160;&#160;&#160;&#160;&#160;&#160;</text><text class="terminal-3970225527-r10" x="488" y="337.2" textLength="475.8" clip-path="url(#terminal-3970225527-line-13)">&#160;명령대로&#160;격자&#160;위&#160;이동(벽이면&#160;무시).&#160;코테&#160;1번&#160;유형의&#160;원형.&#160;&#160;&#160;</text><text class="terminal-3970225527-r1" x="1268.8" y="337.2" textLength="12.2" clip-path="url(#terminal-3970225527-line-13)">
</text><text class="terminal-3970225527-r10" x="36.6" y="361.6" textLength="366" clip-path="url(#terminal-3970225527-line-14)">&#160;⚡&#160;해시&#160;—&#160;빈도&#160;집계&#160;Top-K&#160;&#160;&#160;&#160;&#160;&#160;&#160;&#160;&#160;&#160;&#160;</text><text class="terminal-3970225527-r10" x="488" y="361.6" textLength="524.6" clip-path="url(#terminal-3970225527-line-14)">&#160;빈도&#160;상위&#160;K개&#160;추출.&#160;카카오&#160;1~2번&#160;단골(문자열+해시).&#160;&#160;&#160;&#160;&#160;&#160;&#160;&#160;&#160;</text><text class="terminal-3970225527-r1" x="1268.8" y="361.6" textLength="12.2" clip-path="url(#terminal-3970225527-line-14)">
</text><text class="terminal-3970225527-r10" x="36.6" y="386" textLength="353.8" clip-path="url(#terminal-3970225527-line-15)">&#160;그리디&#160;—&#160;회의실&#160;배정&#160;&#160;&#160;&#160;&#160;&#160;&#160;&#160;&#160;&#160;&#160;&#160;&#160;&#160;&#160;&#160;</text><text class="terminal-3970225527-r10" x="488" y="386" textLength="451.4" clip-path="url(#terminal-3970225527-line-15)">&#160;겹치지&#160;않게&#160;최대&#160;몇&#160;개의&#160;회의를&#160;넣을까.&#160;그리디&#160;대표&#160;원형(백&#160;</text><text class="terminal-3970225527-r1" x="1268.8" y="386" textLength="12.2" clip-path="url(#terminal-3970225527-line-15)">
</text><text class="terminal-3970225527-r10" x="36.6" y="410.4" textLength="366" clip-path="url(#terminal-3970225527-line-16)">&#160;스택&#160;—&#160;괄호&#160;유효성&#160;&#160;&#160;&#160;&#160;&#160;&#160;&#160;&#160;&#160;&#160;&#160;&#160;&#160;&#160;&#160;&#160;&#160;</text><text class="terminal-3970225527-r10" x="488" y="410.4" textLength="451.4" clip-path="url(#terminal-3970225527-line-16)">&#160;여러&#160;종류&#160;괄호의&#160;짝&#160;검사.&#160;스택의&#160;존재&#160;이유를&#160;몸에&#160;새기는&#160;원&#160;</text><text class="terminal-3970225527-r1" x="1268.8" y="410.4" textLength="12.2" clip-path="url(#terminal-3970225527-line-16)">
</text><text class="terminal-3970225527-r10" x="36.6" y="434.8" textLength="353.8" clip-path="url(#terminal-3970225527-line-17)">&#160;힙&#160;—&#160;최소&#160;비용&#160;합치기&#160;&#160;&#160;&#160;&#160;&#160;&#160;&#160;&#160;&#160;&#160;&#160;&#160;&#160;&#160;</text><text class="terminal-3970225527-r10" x="488" y="434.8" textLength="488" clip-path="url(#terminal-3970225527-line-17)">&#160;매번&#160;가장&#160;작은&#160;둘을&#160;합칠&#160;때&#160;총비용&#160;최소화(백준&#160;1715&#160;원형).&#160;&#160;</text><text class="terminal-3970225527-r1" x="1268.8" y="434.8" textLength="12.2" clip-path="url(#terminal-3970225527-line-17)">
</text><text class="terminal-3970225527-r10" x="36.6" y="459.2" textLength="329.4" clip-path="url(#terminal-3970225527-line-18)">&#160;완전탐색&#160;—&#160;부분수열의&#160;합&#160;&#160;&#160;&#160;&#160;&#160;&#160;&#160;&#160;&#160;&#160;&#160;</text><text class="terminal-3970225527-r10" x="488" y="459.2" textLength="488" clip-path="url(#terminal-3970225527-line-18)">&#160;합이&#160;target인&#160;부분집합&#160;개수&#160;—&#160;담는다/안&#160;담는다&#160;이진&#160;트리&#160;전&#160;</text><text class="terminal-3970225527-r1" x="1268.8" y="459.2" textLength="12.2" clip-path="url(#terminal-3970225527-line-18)">
</text><text class="terminal-3970225527-r10" x="36.6" y="483.6" textLength="378.2" clip-path="url(#terminal-3970225527-line-19)">&#160;BFS&#160;—&#160;격자&#160;최단거리&#160;&#160;&#160;&#160;&#160;&#160;&#160;&#160;&#160;&#160;&#160;&#160;&#160;&#160;&#160;&#160;&#160;</text><text class="terminal-3970225527-r10" x="488" y="483.6" textLength="463.6" clip-path="url(#terminal-3970225527-line-19)">&#160;격자에서&#160;시작→목표&#160;최단거리.&#160;코테&#160;최빈출&#160;유형(삼성&#160;단골).&#160;&#160;&#160;</text><text class="terminal-3970225527-r1" x="1268.8" y="483.6" textLength="12.2" clip-path="url(#terminal-3970225527-line-19)">
</text><text class="terminal-3970225527-r10" x="36.6" y="508" textLength="366" clip-path="url(#terminal-3970225527-line-20)">&#160;DFS&#160;—&#160;섬(연결&#160;요소)&#160;개수&#160;&#160;&#160;&#160;&#160;&#160;&#160;&#160;&#160;&#160;&#160;&#160;</text><text class="terminal-3970225527-r10" x="488" y="508" textLength="488" clip-path="url(#terminal-3970225527-line-20)">&#160;격자에서&#160;이어진&#160;땅덩이&#160;개수&#160;세기.&#160;DFS&#160;연결요소의&#160;원형.&#160;&#160;&#160;&#160;&#160;&#160;</text><text class="terminal-3970225527-r1" x="1268.8" y="508" textLength="12.2" clip-path="url(#terminal-3970225527-line-20)">
</text><text class="terminal-3970225527-r10" x="36.6" y="532.4" textLength="353.8" clip-path="url(#terminal-3970225527-line-21)">&#160;구현&#160;—&#160;문자열&#160;런&#160;압축&#160;&#160;&#160;&#160;&#160;&#160;&#160;&#160;&#160;&#160;&#160;&#160;&#160;&#160;&#160;</text><text class="terminal-3970225527-r10" x="488" y="532.4" textLength="524.6" clip-path="url(#terminal-3970225527-line-21)">&#160;연속&#160;문자&#160;묶어&#160;압축(aabcccc→a2bc4).&#160;상태&#160;추적형&#160;문자열&#160;구현.</text><text class="terminal-3970225527-r1" x="1268.8" y="532.4" textLength="12.2" clip-path="url(#terminal-3970225527-line-21)">
</text><text class="terminal-3970225527-r10" x="36.6" y="556.8" textLength="366" clip-path="url(#terminal-3970225527-line-22)">&#160;DP&#160;—&#160;최대&#160;연속&#160;부분합&#160;&#160;&#160;&#160;&#160;&#160;&#160;&#160;&#160;&#160;&#160;&#160;&#160;&#160;&#160;</text><text class="terminal-3970225527-r10" x="488" y="556.8" textLength="488" clip-path="url(#terminal-3970225527-line-22)">&#160;연속&#160;구간&#160;합의&#160;최댓값(카데인).&#160;1차원&#160;DP의&#160;대표&#160;원형(백준&#160;191</text><text class="terminal-3970225527-r1" x="1268.8" y="556.8" textLength="12.2" clip-path="url(#terminal-3970225527-line-22)">
</text><text class="terminal-3970225527-r10" x="36.6" y="581.2" textLength="366" clip-path="url(#terminal-3970225527-line-23)">&#160;DP&#160;—&#160;격자&#160;최소&#160;경로합&#160;&#160;&#160;&#160;&#160;&#160;&#160;&#160;&#160;&#160;&#160;&#160;&#160;&#160;&#160;</text><text class="terminal-3970225527-r10" x="488" y="581.2" textLength="475.8" clip-path="url(#terminal-3970225527-line-23)">&#160;우/하로만&#160;이동,&#160;좌상→우하&#160;최소&#160;비용.&#160;2차원&#160;DP&#160;테이블의&#160;원형.</text><text class="terminal-3970225527-r1" x="1268.8" y="581.2" textLength="12.2" clip-path="url(#terminal-3970225527-line-23)">
</text><text class="terminal-3970225527-r10" x="36.6" y="605.6" textLength="280.6" clip-path="url(#terminal-3970225527-line-24)">&#160;이분탐색&#160;—&#160;랜선&#160;자르기&#160;(파라메트릭)&#160;</text><text class="terminal-3970225527-r10" x="488" y="605.6" textLength="500.2" clip-path="url(#terminal-3970225527-line-24)">&#160;&#x27;길이&#160;x로&#160;자르면&#160;k개&#160;나오나?&#x27;&#160;—&#160;답을&#160;이분탐색(백준&#160;1654&#160;원형</text><text class="terminal-3970225527-r1" x="1268.8" y="605.6" textLength="12.2" clip-path="url(#terminal-3970225527-line-24)">
</text><text class="terminal-3970225527-r10" x="36.6" y="630" textLength="329.4" clip-path="url(#terminal-3970225527-line-25)">&#160;투포인터&#160;—&#160;목표합&#160;쌍&#160;개수&#160;&#160;&#160;&#160;&#160;&#160;&#160;&#160;&#160;&#160;&#160;</text><text class="terminal-3970225527-r10" x="488" y="630" textLength="549" clip-path="url(#terminal-3970225527-line-25)">&#160;정렬&#160;후&#160;양끝에서&#160;좁혀오기&#160;—&#160;O(N²)을&#160;O(N&#160;log&#160;N)으로(백준&#160;3273</text><text class="terminal-3970225527-r1" x="1268.8" y="630" textLength="12.2" clip-path="url(#terminal-3970225527-line-25)">
</text><text class="terminal-3970225527-r10" x="36.6" y="654.4" textLength="280.6" clip-path="url(#terminal-3970225527-line-26)">&#160;다익스트라&#160;—&#160;가중치&#160;최단경로&#160;(선택)&#160;</text><text class="terminal-3970225527-r10" x="488" y="654.4" textLength="475.8" clip-path="url(#terminal-3970225527-line-26)">&#160;간선&#160;비용이&#160;다를&#160;때의&#160;최단경로.&#160;BFS+힙&#160;=&#160;다익스트라(카카오&#160;&#160;</text><text class="terminal-3970225527-r1" x="1268.8" y="654.4" textLength="12.2" clip-path="url(#terminal-3970225527-line-26)">
</text><text class="terminal-3970225527-r12" x="854" y="678.8" textLength="12.2" clip-path="url(#terminal-3970225527-line-27)">▊</text><text class="terminal-3970225527-r1" x="1268.8" y="678.8" textLength="12.2" clip-path="url(#terminal-3970225527-line-27)">
</text><text class="terminal-3970225527-r1" x="1268.8" y="703.2" textLength="12.2" clip-path="url(#terminal-3970225527-line-28)">
</text><text class="terminal-3970225527-r13" x="219.6" y="727.6" textLength="610" clip-path="url(#terminal-3970225527-line-29)">⏎&#160;다음&#160;단계&#160;자동&#160;·&#160;g/b/r/s&#160;모드&#160;·&#160;i&#160;인식&#160;드릴&#160;·&#160;t&#160;속성&#160;7일&#160;·&#160;q&#160;종료</text><text class="terminal-3970225527-r1" x="1268.8" y="727.6" textLength="12.2" clip-path="url(#terminal-3970225527-line-29)">
</text><text class="terminal-3970225527-r5" x="427" y="752" textLength="317.2" clip-path="url(#terminal-3970225527-line-30)">유형&#160;인식률&#160;75%&#160;(n=4)&#160;—&#160;목표&#160;90%+</text><text class="terminal-3970225527-r1" x="1268.8" y="752" textLength="12.2" clip-path="url(#terminal-3970225527-line-30)">
</text><text class="terminal-3970225527-r1" x="1268.8" y="776.4" textLength="12.2" clip-path="url(#terminal-3970225527-line-31)">
</text><text class="terminal-3970225527-r1" x="1268.8" y="800.8" textLength="12.2" clip-path="url(#terminal-3970225527-line-32)">
</text><text class="terminal-3970225527-r14" x="0" y="825.2" textLength="36.6" clip-path="url(#terminal-3970225527-line-33)">&#160;g&#160;</text><text class="terminal-3970225527-r10" x="36.6" y="825.2" textLength="36.6" clip-path="url(#terminal-3970225527-line-33)">보고&#160;</text><text class="terminal-3970225527-r14" x="97.6" y="825.2" textLength="36.6" clip-path="url(#terminal-3970225527-line-33)">&#160;b&#160;</text><text class="terminal-3970225527-r10" x="134.2" y="825.2" textLength="36.6" clip-path="url(#terminal-3970225527-line-33)">빈칸&#160;</text><text class="terminal-3970225527-r14" x="195.2" y="825.2" textLength="36.6" clip-path="url(#terminal-3970225527-line-33)">&#160;r&#160;</text><text class="terminal-3970225527-r10" x="231.8" y="825.2" textLength="36.6" clip-path="url(#terminal-3970225527-line-33)">재현&#160;</text><text class="terminal-3970225527-r14" x="292.8" y="825.2" textLength="36.6" clip-path="url(#terminal-3970225527-line-33)">&#160;s&#160;</text><text class="terminal-3970225527-r10" x="329.4" y="825.2" textLength="36.6" clip-path="url(#terminal-3970225527-line-33)">구현&#160;</text><text class="terminal-3970225527-r14" x="390.4" y="825.2" textLength="36.6" clip-path="url(#terminal-3970225527-line-33)">&#160;i&#160;</text><text class="terminal-3970225527-r10" x="427" y="825.2" textLength="73.2" clip-path="url(#terminal-3970225527-line-33)">인식&#160;드릴&#160;</text><text class="terminal-3970225527-r14" x="549" y="825.2" textLength="36.6" clip-path="url(#terminal-3970225527-line-33)">&#160;t&#160;</text><text class="terminal-3970225527-r10" x="585.6" y="825.2" textLength="73.2" clip-path="url(#terminal-3970225527-line-33)">속성&#160;7일&#160;</text><text class="terminal-3970225527-r14" x="695.4" y="825.2" textLength="36.6" clip-path="url(#terminal-3970225527-line-33)">&#160;q&#160;</text><text class="terminal-3970225527-r10" x="732" y="825.2" textLength="36.6" clip-path="url(#terminal-3970225527-line-33)">종료&#160;</text><text class="terminal-3970225527-r15" x="1122.4" y="825.2" textLength="12.2" clip-path="url(#terminal-3970225527-line-33)">▏</text><text class="terminal-3970225527-r14" x="1134.6" y="825.2" textLength="24.4" clip-path="url(#terminal-3970225527-line-33)">^p</text><text class="terminal-3970225527-r10" x="1159" y="825.2" textLength="97.6" clip-path="url(#terminal-3970225527-line-33)">&#160;palette</text>
    </g>
    </g>
</svg>
